<?xml version="1.0" encoding="UTF-8"?>
<svg id="Layer_1" data-name="Layer 1" xmlns="http://www.w3.org/2000/svg" viewBox="0 0 84.69 48.43">
  <g>
    <path d="m15.71,0c-.59.14-1.2.24-1.77.44-1.11.38-1.96,1.04-2.25,2.27-.02.11-.23.22-.37.25-.63.13-1.28.17-1.9.35-2.51.71-3.33,2.85-1.95,5.08.92,1.5,2.22,2.61,3.68,3.54,3.09,1.98,6.43,3.27,10.09,3.69.27.03.37.12.39.41.03.42.12.83.19,1.28-.74.13-1.5.23-2.25.39-3.94.83-7.35,2.66-10.17,5.53-2.01,2.04-3.71,4.32-4.98,6.91-.91,1.86-1.48,3.81-1.54,5.89-.01.37-.11.57-.48.73-1.7.74-2.67,2.66-2.35,4.57.3,1.79,1.87,3.24,3.66,3.45,1,.12,1.9-.12,2.77-.59,1.34,1.12,2.83,1.94,4.51,2.4.26.07.52.16.78.18,1.55.12,2.84,1.08,4.35,1.32.65.1,1.3.24,1.94.35h1.7c.88-.27,1.81-.44,2.64-.82,1.92-.88,2.39-2.94,1.12-4.65-.16-.21-.34-.42-.53-.6-.59-.58-.6-.58-.1-1.32.21.22.41.42.61.64,1.64,1.81,3.48,3.38,5.64,4.54,1.5.8,3.08,1.37,4.79,1.42,1.13.03,2.18-.23,3.09-.96,1.12-.9,1.36-2.53.59-4.05-.61-1.21-1.52-2.15-2.55-3-.23-.19-.47-.37-.73-.57,3.27-4.31,4.11-8.93,1.74-13.95.82-.27,1.63-.5,2.42-.8,1.41-.54,2.7-1.28,3.77-2.37,1.7-1.73,2.09-3.79,1.07-5.98-.36-.78-.8-1.53-1.23-2.28-.31-.54-.8-.68-1.22-.41-.42.27-.46.73-.16,1.29.44.82.88,1.63,1.25,2.48.63,1.45.16,2.67-.88,3.74-1.02,1.05-2.29,1.71-3.65,2.19-2.64.92-5.32,1.1-8.01.24-3.14-1-5.05-3.19-5.95-6.3-.16-.56-.18-1.17-.21-1.77-.04-.7-.25-.99-.95-1.04-2.7-.19-5.26-.93-7.69-2.09-1.95-.93-3.82-2.03-5.21-3.74-.38-.46-.67-1.03-.89-1.59-.23-.59-.03-1.11.53-1.41.45-.24.95-.44,1.45-.52,1.63-.29,3.26-.14,4.87.24,2.9.69,5.62,1.82,8.06,3.56.43.31.84.32,1.26.01,2.18-1.63,4.57-1.67,7.05-.89,2.39.75,4.41,2.11,6.26,3.77.2.18.38.38.59.55.41.33.87.32,1.18-.02.31-.34.3-.82-.09-1.18-.61-.57-1.22-1.14-1.88-1.65-2.07-1.62-4.33-2.85-6.93-3.38-.17-.03-.35-.14-.48-.26-1.97-1.86-4.29-3.12-6.8-4.06-1.88-.7-3.8-1.21-5.81-1.34-.06,0-.12-.04-.17-.06-.63,0-1.26,0-1.89,0Zm17.09,25.35c.19,0,.38,0,.57,0,.2,0,.41,0,.61-.02.26-.04.39.08.51.3,1.76,3.38,1.77,6.77,0,10.13-.5.95-1.18,1.81-1.84,2.68-.5.66-.48,1.08.2,1.57.23.17.47.32.69.49.96.73,1.85,1.51,2.47,2.57.9,1.55.29,2.75-1.49,2.91-.03,0-.06,0-.09,0-1.33.12-2.56-.24-3.73-.82-2.76-1.36-4.98-3.39-6.96-5.71-.1-.11-.09-.35-.07-.52.08-.61.24-1.21.29-1.82.17-2.03-.25-3.95-1.17-5.76-.24-.48-.67-.63-1.1-.44-.42.19-.57.63-.38,1.12.03.09.08.17.12.26.98,2.06,1.18,4.19.6,6.4-.43,1.65-1.26,3.02-2.83,3.83-.8.41-1.59.83-2.39,1.23-.55.27-.77.68-.58,1.12.19.47.68.65,1.23.38,1.08-.54,2.16-1.1,3.19-1.71.79-.46.82-.5,1.42.22.08.1.16.2.23.3.52.79.37,1.61-.48,2.03-.61.3-1.29.53-1.96.61-2.08.24-4.06-.2-5.93-1.14-.25-.12-.53-.21-.81-.24-1.64-.18-3.16-.7-4.53-1.62-2.4-1.62-3.93-3.8-4.08-6.77-.11-2.1.43-4.09,1.33-5.98.93-1.95,2.17-3.69,3.57-5.32,2.41-2.81,5.33-4.89,8.87-5.99,1.18-.37,2.41-.57,3.62-.84.36-.08.57.1.72.44.62,1.35,1.49,2.52,2.62,3.48,2.18,1.85,4.75,2.56,7.55,2.62ZM13.34,3c.2-.57.56-.87,1.31-1.09,1.19-.35,2.4-.32,3.6-.17,2.66.33,5.17,1.18,7.53,2.45.71.38,1.38.84,2.07,1.26-1.33.27-2.52.7-3.63,1.39-.1.06-.32-.01-.45-.09-.92-.51-1.81-1.08-2.75-1.55-2.41-1.2-4.98-1.91-7.69-2.2ZM5.21,42.96c-1.44.49-2.84-.11-3.37-1.39-.51-1.23,0-2.67,1.17-3.23.37,1.7,1.09,3.23,2.2,4.62Z"/>
    <path d="m34.03,13.52c-.79,0-1.42.61-1.42,1.39,0,.78.63,1.42,1.4,1.42.75,0,1.38-.62,1.41-1.38.02-.77-.61-1.42-1.39-1.43Z"/>
    <path d="m19.25,29.24c.22-.19.5-.35.64-.58.19-.3.14-.7-.17-.89-.85-.52-1.72-1.02-2.62-1.45-.39-.19-.8.07-.96.46-.16.39-.07.74.28.95.81.48,1.64.92,2.46,1.37.08.04.18.04.27.06.03.03.06.06.09.09Z"/>
  </g>
  <text/>
</svg>