<?xml version="1.0" encoding="UTF-8"?>
<svg id="Layer_1" data-name="Layer 1" xmlns="http://www.w3.org/2000/svg" viewBox="0 0 30 30">
  <defs>
    <style>
      .cls-1 {
        fill: #b0926a;
        stroke: #b0926a;
        stroke-miterlimit: 10;
        stroke-width: .75px;
      }
    </style>
  </defs>
  <path class="cls-1" d="m8.54,27.42c-.94-.51-1.78-1.1-2.51-1.86-.6-.63-1.08-1.33-1.43-2.13-.07-.15-.14-.2-.31-.2-1.08.04-2-.79-2.08-1.86-.08-1.08.68-2.02,1.77-2.15.17-.02.22-.1.25-.24.49-1.86,1.58-3.29,3.16-4.36.11-.08.31-.12.44-.08.31.09.32.47.04.69-.38.31-.79.59-1.13.93-1.4,1.41-2.1,3.1-1.91,5.1.15,1.59.86,2.91,2.01,4,1.46,1.38,3.22,2.08,5.21,2.15,1.17.04,2.34.02,3.51,0,1.36-.01,2.43-1.07,2.46-2.4.03-1.3-1.01-2.4-2.35-2.47-.38-.02-.76,0-1.14-.02-.33-.01-.51-.28-.38-.54.05-.1.18-.21.27-.22.84-.02,1.68-.1,2.48.27,2.05.96,2.54,3.56.97,5.19-.04.04-.08.09-.15.16.07.01.12.03.16.03,1.1,0,2.2,0,3.3,0,.36,0,.66-.13.89-.4.56-.63.23-1.62-.59-1.8-.07-.02-.14-.02-.21-.03-.38-.05-.5-.23-.4-.6.2-.73.41-1.47.62-2.2.26-.91.52-1.82.78-2.73.13-.45.22-.51.68-.47.74.07,1.47-.02,2.17-.29,1.53-.6,2.15-1.93,1.6-3.48-.41-1.17-1.16-2.1-2.07-2.92-.68-.62-1.41-1.16-2.3-1.44-1.19-.37-2.23-.1-3.09.79-.72.75-1.14,1.66-1.29,2.69-.11.72-.69,1.01-1.32.62-1.36-.84-2.84-1.29-4.44-1.24-.65.02-1.3.17-1.95.26-.03,0-.07.02-.1.03-.27.05-.47-.05-.53-.27-.06-.21.07-.42.33-.49.94-.25,1.9-.36,2.87-.31,1.49.08,2.87.52,4.14,1.3.05.03.11.05.18.09.13-1.02.53-1.9,1.11-2.67-.58-.63-1.17-1.22-1.7-1.86-.79-.95-1.35-2.01-1.55-3.25-.18-1.1-.04-2.16.4-3.17.21-.49.72-.72,1.26-.6.82.19,1.56.53,2.23,1.03.08.06.15.11.24.17.16-.34.29-.68.46-1,.18-.32.38-.62.6-.9.39-.5.94-.59,1.49-.27,1.52.9,2.45,2.23,2.81,3.95.26,1.25.18,2.51-.02,3.76-.06.39-.14.78-.23,1.17-.04.18,0,.28.15.4,1.26.95,2.32,2.09,2.94,3.57.33.78.48,1.58.27,2.41-.3,1.21-1.12,1.94-2.23,2.38-.69.28-1.42.37-2.16.36-.13,0-.23-.01-.28.16-.39,1.42-.8,2.83-1.2,4.24,0,.02,0,.03,0,.05,1.34.5,1.74,1.84,1.05,2.96.11,0,.2.01.29.01,1.37,0,2.73,0,4.1,0,.11,0,.23,0,.34.04.18.06.26.21.24.4-.02.19-.13.31-.32.34-.09.01-.18,0-.27,0-8.05,0-16.09,0-24.14,0-.09,0-.18,0-.27,0-.19-.03-.3-.15-.31-.34-.02-.19.06-.34.24-.39.11-.03.23-.04.34-.04,1.73,0,3.46,0,5.19,0,.09,0,.19,0,.28,0Zm14.98-16.84s0,0,0-.02c.29-1.32.48-2.66.29-4.01-.22-1.67-1.02-2.98-2.48-3.86-.22-.13-.39-.11-.55.1-.91,1.15-1.24,2.45-1.04,3.89.15,1.1.6,2.1,1.12,3.08.12.22.24.38.52.32.12-.02.25,0,.37.02.58.15,1.15.32,1.75.49Zm-3.29-.37c-.04-.08-.09-.18-.15-.28-.78-1.48-1.31-3.02-1.14-4.73,0-.08-.05-.19-.11-.24-.65-.61-1.41-1-2.27-1.22-.22-.06-.37.02-.46.24-.23.57-.36,1.15-.37,1.76-.02,1.17.36,2.21,1,3.16.58.86,1.29,1.61,2.05,2.27.49-.32.95-.63,1.44-.95ZM4.18,22.42c-.07-.8-.13-1.6-.2-2.4-.61.1-1.06.68-.99,1.3.08.66.63,1.14,1.19,1.1Z"/>
  <path class="cls-1" d="m23.39,13.81c0,.21-.17.39-.38.39-.22,0-.43-.2-.43-.41,0-.21.17-.39.38-.39.22,0,.43.19.43.41Z"/>
</svg>